<?xml version="1.0" standalone="no"?><!DOCTYPE svg PUBLIC "-//W3C//DTD SVG 1.1//EN" "http://www.w3.org/Graphics/SVG/1.1/DTD/svg11.dtd"><svg t="1631349975499" class="icon" viewBox="0 0 1024 1024" version="1.1" xmlns="http://www.w3.org/2000/svg" p-id="1999" xmlns:xlink="http://www.w3.org/1999/xlink" width="200" height="200"><defs><style type="text/css"></style></defs><path d="M896 896c-12.8 0-21.333333-8.533333-21.333333-21.333333V128H149.333333v746.666667c0 12.8-8.533333 21.333333-21.333333 21.333333s-21.333333-8.533333-21.333333-21.333333V106.666667c0-12.8 8.533333-21.333333 21.333333-21.333334h768c12.8 0 21.333333 8.533333 21.333333 21.333334v768c0 12.8-8.533333 21.333333-21.333333 21.333333z" p-id="2000"></path><path d="M896 896H128c-12.8 0-21.333333-8.533333-21.333333-21.333333s8.533333-21.333333 21.333333-21.333334h768c12.8 0 21.333333 8.533333 21.333333 21.333334s-8.533333 21.333333-21.333333 21.333333zM896 640H128c-12.8 0-21.333333-8.533333-21.333333-21.333333s8.533333-21.333333 21.333333-21.333334h768c12.8 0 21.333333 8.533333 21.333333 21.333334s-8.533333 21.333333-21.333333 21.333333zM896 384H128c-12.8 0-21.333333-8.533333-21.333333-21.333333s8.533333-21.333333 21.333333-21.333334h768c12.8 0 21.333333 8.533333 21.333333 21.333334s-8.533333 21.333333-21.333333 21.333333z" p-id="2001"></path><path d="M213.333333 938.666667c-12.8 0-21.333333-8.533333-21.333333-21.333334v-42.666666c0-12.8 8.533333-21.333333 21.333333-21.333334s21.333333 8.533333 21.333334 21.333334v42.666666c0 12.8-8.533333 21.333333-21.333334 21.333334zM341.333333 768h-42.666666c-12.8 0-21.333333-8.533333-21.333334-21.333333s8.533333-21.333333 21.333334-21.333334h42.666666c12.8 0 21.333333 8.533333 21.333334 21.333334s-8.533333 21.333333-21.333334 21.333333zM298.666667 640c-12.8 0-21.333333-8.533333-21.333334-21.333333v-128c0-12.8 8.533333-21.333333 21.333334-21.333334s21.333333 8.533333 21.333333 21.333334v128c0 12.8-8.533333 21.333333-21.333333 21.333333zM289.834667 341.973333l120.661333-120.682666 30.186667 30.186666L320 372.138667zM725.333333 768h-42.666666c-12.8 0-21.333333-8.533333-21.333334-21.333333s8.533333-21.333333 21.333334-21.333334h42.666666c12.8 0 21.333333 8.533333 21.333334 21.333334s-8.533333 21.333333-21.333334 21.333333zM810.666667 938.666667c-12.8 0-21.333333-8.533333-21.333334-21.333334v-42.666666c0-12.8 8.533333-21.333333 21.333334-21.333334s21.333333 8.533333 21.333333 21.333334v42.666666c0 12.8-8.533333 21.333333-21.333333 21.333334zM512 896c-12.8 0-21.333333-8.533333-21.333333-21.333333V618.666667c0-12.8 8.533333-21.333333 21.333333-21.333334s21.333333 8.533333 21.333333 21.333334v256c0 12.8-8.533333 21.333333-21.333333 21.333333z" p-id="2002"></path><path d="M426.666667 384c-12.8 0-21.333333-8.533333-21.333334-21.333333v-128c0-12.8 8.533333-21.333333 21.333334-21.333334s21.333333 8.533333 21.333333 21.333334v128c0 12.8-8.533333 21.333333-21.333333 21.333333zM554.666667 384c-12.8 0-21.333333-8.533333-21.333334-21.333333v-128c0-12.8 8.533333-21.333333 21.333334-21.333334s21.333333 8.533333 21.333333 21.333334v128c0 12.8-8.533333 21.333333-21.333333 21.333333zM682.666667 384c-12.8 0-21.333333-8.533333-21.333334-21.333333v-128c0-12.8 8.533333-21.333333 21.333334-21.333334s21.333333 8.533333 21.333333 21.333334v128c0 12.8-8.533333 21.333333-21.333333 21.333333zM669.290667 506.794667l30.165333-30.165334 120.682667 120.661334-30.186667 30.186666z" p-id="2003"></path><path d="M682.666667 640c-12.8 0-21.333333-8.533333-21.333334-21.333333v-128c0-12.8 8.533333-21.333333 21.333334-21.333334s21.333333 8.533333 21.333333 21.333334v128c0 12.8-8.533333 21.333333-21.333333 21.333333zM554.666667 640c-12.8 0-21.333333-8.533333-21.333334-21.333333v-128c0-12.8 8.533333-21.333333 21.333334-21.333334s21.333333 8.533333 21.333333 21.333334v128c0 12.8-8.533333 21.333333-21.333333 21.333333zM426.666667 640c-12.8 0-21.333333-8.533333-21.333334-21.333333v-128c0-12.8 8.533333-21.333333 21.333334-21.333334s21.333333 8.533333 21.333333 21.333334v128c0 12.8-8.533333 21.333333-21.333333 21.333333z" p-id="2004"></path></svg>