<?xml version="1.0" standalone="no"?><!DOCTYPE svg PUBLIC "-//W3C//DTD SVG 1.1//EN" "http://www.w3.org/Graphics/SVG/1.1/DTD/svg11.dtd"><svg t="1631349935255" class="icon" viewBox="0 0 1024 1024" version="1.1" xmlns="http://www.w3.org/2000/svg" p-id="1582" xmlns:xlink="http://www.w3.org/1999/xlink" width="200" height="200"><defs><style type="text/css"></style></defs><path d="M298.667 960c-6.4 0-10.667-2.133-14.934-6.4L70.4 740.267c-8.533-8.534-8.533-21.334 0-29.867l213.333-213.333c8.534-8.534 21.334-8.534 29.867 0s8.533 21.333 0 29.866l-198.4 198.4L298.667 908.8l198.4-198.4c8.533-8.533 21.333-8.533 29.866 0 8.534 8.533 8.534 21.333 0 29.867L313.6 953.6c-4.267 4.267-8.533 6.4-14.933 6.4zM723.2 535.467c-6.4 0-10.667-2.134-14.933-6.4-8.534-8.534-8.534-21.334 0-29.867L908.8 298.667 725.333 115.2 524.8 315.733c-8.533 8.534-21.333 8.534-29.867 0s-8.533-21.333 0-29.866L710.4 70.4c8.533-8.533 21.333-8.533 29.867 0L953.6 283.733c8.533 8.534 8.533 21.334 0 29.867L738.133 529.067c-4.266 4.266-8.533 6.4-14.933 6.4zM277.333 725.333c-6.4 0-10.666-2.133-14.933-6.4L177.067 633.6c-8.534-8.533-8.534-21.333 0-29.867s21.333-8.533 29.866 0l85.334 85.334c8.533 8.533 8.533 21.333 0 29.866-4.267 4.267-8.534 6.4-14.934 6.4zM704 298.667c-6.4 0-10.667-2.134-14.933-6.4l-85.334-85.334c-8.533-8.533-8.533-21.333 0-29.866s21.334-8.534 29.867 0l85.333 85.333c8.534 8.533 8.534 21.333 0 29.867-4.266 4.266-8.533 6.4-14.933 6.4z m19.2 657.066c-6.4 0-10.667-2.133-14.933-6.4l-558.934-556.8c-8.533-8.533-8.533-21.333 0-29.866l211.2-213.334c8.534-8.533 21.334-8.533 29.867 0l558.933 558.934c8.534 8.533 8.534 21.333 0 29.866l-211.2 211.2c-4.266 4.267-8.533 6.4-14.933 6.4zM194.133 377.6l526.934 526.933L902.4 723.2 375.467 196.267 194.133 377.6z m-29.866 19.2c-6.4 0-10.667-2.133-14.934-6.4L89.6 330.667c-4.267-4.267-6.4-8.534-6.4-14.934v-211.2c0-12.8 8.533-21.333 21.333-21.333h211.2c6.4 0 10.667 2.133 14.934 6.4l59.733 59.733c4.267 4.267 6.4 8.534 6.4 14.934s-2.133 10.666-6.4 14.933L179.2 390.4c-4.267 4.267-8.533 6.4-14.933 6.4z m-38.4-89.6l38.4 38.4L345.6 164.267l-38.4-38.4H125.867V307.2z m522.666 541.867c-6.4 0-10.666-2.134-14.933-6.4-8.533-8.534-8.533-21.334 0-29.867l181.333-181.333c8.534-8.534 21.334-8.534 29.867 0s8.533 21.333 0 29.866L663.467 842.667c-4.267 4.266-10.667 6.4-14.934 6.4z" p-id="1583"></path></svg>