<?xml version="1.0" standalone="no"?><!DOCTYPE svg PUBLIC "-//W3C//DTD SVG 1.1//EN" "http://www.w3.org/Graphics/SVG/1.1/DTD/svg11.dtd"><svg t="1631349924696" class="icon" viewBox="0 0 1024 1024" version="1.1" xmlns="http://www.w3.org/2000/svg" p-id="1443" xmlns:xlink="http://www.w3.org/1999/xlink" width="200" height="200"><defs><style type="text/css"></style></defs><path d="M512 896c-6.4 0-12.8-2.133-17.067-8.533l-405.333-512c-6.4-8.534-6.4-19.2 0-25.6l162.133-213.334C256 130.133 262.4 128 268.8 128h486.4c6.4 0 12.8 2.133 17.067 8.533L934.4 349.867c6.4 8.533 6.4 19.2 0 25.6l-405.333 512C524.8 893.867 518.4 896 512 896zM134.4 362.667L512 840.533l377.6-477.866-145.067-192H279.467l-145.067 192zM917.333 384H106.667c-12.8 0-21.334-8.533-21.334-21.333s8.534-21.334 21.334-21.334h810.666c12.8 0 21.334 8.534 21.334 21.334S930.133 384 917.333 384zM512 896c-8.533 0-17.067-6.4-19.2-14.933l-170.667-512c-4.266-10.667 2.134-23.467 12.8-27.734 10.667-4.266 23.467 2.134 27.734 12.8l170.666 512c4.267 10.667-2.133 23.467-12.8 27.734C516.267 896 514.133 896 512 896z m0 0c-2.133 0-4.267 0-6.4-2.133-10.667-4.267-17.067-14.934-12.8-27.734l170.667-512c4.266-10.666 14.933-17.066 27.733-12.8 10.667 4.267 17.067 14.934 12.8 27.734l-170.667 512C529.067 889.6 520.533 896 512 896z m0 0c-6.4 0-12.8-2.133-17.067-8.533l-405.333-512c-6.4-8.534-6.4-19.2 0-25.6L170.667 243.2c6.4-8.533 21.333-10.667 29.866-4.267 8.534 6.4 10.667 21.334 4.267 29.867l-70.4 93.867L512 840.533l377.6-477.866-70.4-93.867c-6.4-8.533-4.267-23.467 4.267-29.867 8.533-6.4 23.466-4.266 29.866 4.267L934.4 349.867c6.4 8.533 6.4 19.2 0 25.6l-405.333 512C524.8 893.867 518.4 896 512 896z m170.667-512c-8.534 0-17.067-6.4-19.2-14.933l-70.4-213.334c-4.267-10.666 2.133-23.466 12.8-27.733 10.666-4.267 23.466 2.133 27.733 12.8L704 354.133c4.267 10.667-2.133 23.467-12.8 27.734-4.267 2.133-6.4 2.133-8.533 2.133z m-341.334 0c-2.133 0-4.266 0-6.4-2.133-10.666-4.267-17.066-14.934-12.8-27.734l70.4-213.333c4.267-10.667 14.934-17.067 27.734-12.8 10.666 4.267 17.066 14.933 12.8 27.733l-70.4 213.334C358.4 377.6 349.867 384 341.333 384z" p-id="1444"></path></svg>