<?xml version="1.0" standalone="no"?><!DOCTYPE svg PUBLIC "-//W3C//DTD SVG 1.1//EN" "http://www.w3.org/Graphics/SVG/1.1/DTD/svg11.dtd"><svg t="1631349940512" class="icon" viewBox="0 0 1024 1024" version="1.1" xmlns="http://www.w3.org/2000/svg" p-id="1721" xmlns:xlink="http://www.w3.org/1999/xlink" width="200" height="200"><defs><style type="text/css"></style></defs><path d="M704 981.333H277.333c-6.4 0-12.8-2.133-17.066-8.533C256 968.533 256 960 256 953.6l128-469.333c2.133-8.534 10.667-14.934 21.333-14.934H576c10.667 0 17.067 6.4 21.333 14.934l128 469.333c2.134 6.4 0 12.8-4.266 19.2-4.267 6.4-10.667 8.533-17.067 8.533z m-398.933-42.666h371.2L558.933 512H420.267l-115.2 426.667z m398.933-576c-23.467 0-44.8-8.534-59.733-25.6-17.067-17.067-25.6-38.4-25.6-59.734s8.533-44.8 25.6-59.733c14.933-14.933 42.666-29.867 68.266-38.4 36.267-10.667 64-8.533 81.067 8.533 17.067 17.067 19.2 46.934 8.533 81.067-8.533 25.6-23.466 53.333-38.4 68.267-14.933 17.066-36.266 25.6-59.733 25.6z m49.067-149.334c-6.4 0-14.934 2.134-25.6 4.267-23.467 6.4-42.667 19.2-51.2 27.733-10.667 8.534-14.934 19.2-14.934 32s4.267 21.334 12.8 29.867c17.067 17.067 44.8 17.067 59.734 0 8.533-8.533 21.333-27.733 27.733-51.2 6.4-23.467 4.267-36.267 2.133-38.4 0-2.133-4.266-4.267-10.666-4.267z m-445.867 32c-6.4 0-14.933 0-21.333-2.133-21.334-6.4-40.534-19.2-51.2-40.533-10.667-19.2-19.2-49.067-19.2-76.8-2.134-38.4 8.533-64 29.866-76.8 21.334-12.8 49.067-8.534 81.067 12.8 23.467 14.933 44.8 36.266 57.6 55.466 23.467 40.534 8.533 93.867-32 117.334-14.933 6.4-29.867 10.666-44.8 10.666z m-38.4-160h-4.267c-4.266 4.267-8.533 14.934-8.533 38.4s8.533 46.934 14.933 57.6c6.4 10.667 14.934 17.067 25.6 19.2 10.667 2.134 23.467 2.134 32-4.266 21.334-12.8 27.734-38.4 14.934-57.6-6.4-10.667-21.334-27.734-42.667-40.534-14.933-10.666-25.6-12.8-32-12.8z m121.6 354.134c-8.533 0-19.2-2.134-29.867-4.267-19.2-6.4-46.933-17.067-68.266-32-32-21.333-44.8-42.667-40.534-61.867 6.4-19.2 27.734-32 66.134-34.133 25.6-2.133 55.466 0 74.666 6.4 46.934 12.8 74.667 49.067 66.134 83.2-6.4 25.6-34.134 42.667-68.267 42.667zM298.667 352c10.666 12.8 46.933 34.133 72.533 42.667 25.6 6.4 44.8-2.134 46.933-8.534 2.134-8.533-10.666-25.6-36.266-32-25.6-8.533-68.267-8.533-83.2-2.133z m256 138.667H512C512 377.6 605.867 315.733 654.933 300.8l12.8 40.533-6.4-21.333 6.4 19.2c-4.266 2.133-113.066 40.533-113.066 151.467zM452.267 512c-10.667 0-21.334-8.533-21.334-21.333-4.266-230.4-91.733-256-93.866-256-10.667-2.134-19.2-14.934-14.934-25.6 2.134-10.667 12.8-19.2 25.6-17.067 4.267 0 123.734 27.733 128 298.667C473.6 501.333 462.933 512 452.267 512z m38.4 170.667h-128c-12.8 0-21.334-8.534-21.334-21.334S349.867 640 362.667 640h128c12.8 0 21.333 8.533 21.333 21.333s-8.533 21.334-21.333 21.334z m42.666 128h-192c-12.8 0-21.333-8.534-21.333-21.334S328.533 768 341.333 768h192c12.8 0 21.334 8.533 21.334 21.333s-8.534 21.334-21.334 21.334z" p-id="1722"></path></svg>