<?xml version="1.0" standalone="no"?><!DOCTYPE svg PUBLIC "-//W3C//DTD SVG 1.1//EN" "http://www.w3.org/Graphics/SVG/1.1/DTD/svg11.dtd"><svg t="1631349946755" class="icon" viewBox="0 0 1024 1024" version="1.1" xmlns="http://www.w3.org/2000/svg" p-id="1860" xmlns:xlink="http://www.w3.org/1999/xlink" width="200" height="200"><defs><style type="text/css"></style></defs><path d="M938.667 618.667H85.333c-12.8 0-21.333-8.534-21.333-21.334 0-247.466 200.533-448 448-448s448 200.534 448 448c0 12.8-8.533 21.334-21.333 21.334z m-832-42.667h810.666C906.667 362.667 727.467 192 512 192S117.333 362.667 106.667 576zM512 192c-12.8 0-21.333-8.533-21.333-21.333V85.333C490.667 72.533 499.2 64 512 64s21.333 8.533 21.333 21.333v85.334c0 12.8-8.533 21.333-21.333 21.333z m0 640c-130.133 0-234.667-104.533-234.667-234.667 0-12.8 8.534-21.333 21.334-21.333h426.666c12.8 0 21.334 8.533 21.334 21.333C746.667 727.467 642.133 832 512 832zM322.133 618.667c10.667 96 91.734 170.666 189.867 170.666s179.2-74.666 189.867-170.666H322.133z m531.2 234.666c-6.4 0-12.8-2.133-17.066-8.533l-44.8-64c-6.4-10.667-4.267-23.467 4.266-29.867 10.667-6.4 23.467-4.266 29.867 4.267l44.8 64c6.4 10.667 4.267 23.467-4.267 29.867-4.266 2.133-8.533 4.266-12.8 4.266z m-689.066-4.266c-6.4 0-10.667-2.134-14.934-6.4-8.533-8.534-8.533-21.334 0-29.867l53.334-53.333c8.533-8.534 21.333-8.534 29.866 0s8.534 21.333 0 29.866L179.2 842.667c-4.267 4.266-8.533 6.4-14.933 6.4z m561.066 68.266c-6.4 0-12.8-2.133-17.066-8.533l-25.6-36.267c-6.4-10.666-4.267-23.466 4.266-29.866 10.667-6.4 23.467-4.267 29.867 4.266l23.467 34.134c6.4 10.666 4.266 23.466-4.267 29.866-2.133 4.267-6.4 6.4-10.667 6.4zM292.267 915.2c-6.4 0-10.667-2.133-14.934-6.4-8.533-8.533-8.533-21.333 0-29.867l29.867-29.866c8.533-8.534 21.333-8.534 29.867 0s8.533 21.333 0 29.866L307.2 908.8c-4.267 4.267-8.533 6.4-14.933 6.4z" p-id="1861"></path></svg>